<svg width="50" height="81" viewBox="0 0 50 81" fill="none" xmlns="http://www.w3.org/2000/svg">
<path d="M25.2305 80.4232C18.1299 80.4232 12.3355 79.3849 7.84731 77.3083C3.35917 75.2317 1.11509 72.5857 1.11509 69.3703C1.11509 67.5616 1.93569 65.8535 3.57687 64.2458C5.21806 62.6381 7.47888 61.3318 10.3593 60.327L12.168 66.1549C11.0962 66.4898 10.1081 66.9588 9.20381 67.5616C8.29948 68.1645 7.57936 68.7674 7.04347 69.3703C8.18225 70.71 10.5436 71.8823 14.1274 72.8871C17.7112 73.8919 21.4122 74.3943 25.2305 74.3943C29.0488 74.3943 32.7666 73.8919 36.3839 72.8871C40.0012 71.8823 42.3792 70.71 43.518 69.3703C42.9821 68.8344 42.2788 68.265 41.4079 67.6621C40.5371 67.0592 39.5323 66.5568 38.3935 66.1549L40.1017 60.327C42.9821 61.3318 45.243 62.6381 46.8841 64.2458C48.5253 65.8535 49.3459 67.5616 49.3459 69.3703C49.3459 72.5857 47.1019 75.2317 42.6137 77.3083C38.1256 79.3849 32.3312 80.4232 25.2305 80.4232ZM25.2305 69.7722C24.4267 69.7722 23.7233 69.5378 23.1204 69.0689C22.5175 68.5999 22.0821 67.9971 21.8142 67.2602C20.2065 62.3701 18.1968 58.3174 15.7853 55.102C13.3738 51.8866 11.0292 48.8052 8.75164 45.8578C6.47407 42.9103 4.53144 39.8457 2.92375 36.6638C1.31605 33.4819 0.512207 29.5129 0.512207 24.7568C0.512207 17.8571 2.907 12.0124 7.69659 7.22285C12.4862 2.43326 18.3308 0.0384674 25.2305 0.0384674C32.1302 0.0384674 37.9748 2.43326 42.7644 7.22285C47.554 12.0124 49.9488 17.8571 49.9488 24.7568C49.9488 29.5129 49.145 33.4819 47.5373 36.6638C45.9296 39.8457 43.9869 42.9103 41.7094 45.8578C39.4318 48.8052 37.0873 51.8866 34.6757 55.102C32.2642 58.3174 30.2546 62.3701 28.6469 67.2602C28.3789 67.9971 27.9435 68.5999 27.3406 69.0689C26.7377 69.5378 26.0344 69.7722 25.2305 69.7722ZM25.2305 30.7856C26.9052 30.7856 28.3287 30.1995 29.5009 29.0272C30.6732 27.8549 31.2594 26.4315 31.2594 24.7568C31.2594 23.0821 30.6732 21.6586 29.5009 20.4863C28.3287 19.3141 26.9052 18.7279 25.2305 18.7279C23.5558 18.7279 22.1323 19.3141 20.9601 20.4863C19.7878 21.6586 19.2017 23.0821 19.2017 24.7568C19.2017 26.4315 19.7878 27.8549 20.9601 29.0272C22.1323 30.1995 23.5558 30.7856 25.2305 30.7856Z" fill="#004357"/>
</svg>
