<svg width="50" height="81" viewBox="0 0 50 81" fill="none" xmlns="http://www.w3.org/2000/svg">
<path d="M25.2308 80.4232C18.1301 80.4232 12.3357 79.3849 7.84756 77.3083C3.35941 75.2317 1.11534 72.5857 1.11534 69.3703C1.11534 67.5616 1.93593 65.8535 3.57712 64.2458C5.21831 62.6381 7.47913 61.3318 10.3596 60.327L12.1682 66.1549C11.0964 66.4898 10.1084 66.9588 9.20405 67.5616C8.29972 68.1645 7.57961 68.7674 7.04371 69.3703C8.18249 70.71 10.5438 71.8823 14.1276 72.8871C17.7114 73.8919 21.4125 74.3943 25.2308 74.3943C29.049 74.3943 32.7668 73.8919 36.3841 72.8871C40.0014 71.8823 42.3795 70.71 43.5183 69.3703C42.9824 68.8344 42.279 68.265 41.4082 67.6621C40.5373 67.0592 39.5325 66.5568 38.3938 66.1549L40.1019 60.327C42.9824 61.3318 45.2432 62.6381 46.8844 64.2458C48.5256 65.8535 49.3462 67.5616 49.3462 69.3703C49.3462 72.5857 47.1021 75.2317 42.6139 77.3083C38.1258 79.3849 32.3314 80.4232 25.2308 80.4232ZM25.2308 58.8198C26.6444 56.2073 28.1366 53.8125 29.7074 51.6354C31.2781 49.4583 32.8338 47.3985 34.3745 45.4558C37.322 41.6376 39.6498 38.3552 41.3579 35.6087C43.0661 32.8622 43.9202 29.2424 43.9202 24.7493C43.9202 19.5467 42.1044 15.1324 38.4727 11.5064C34.841 7.88033 30.4199 6.06732 25.2093 6.06732C19.9986 6.06732 15.5846 7.88033 11.9673 11.5064C8.34996 15.1324 6.54131 19.5467 6.54131 24.7493C6.54131 29.2424 7.39539 32.8622 9.10357 35.6087C10.8117 38.3552 13.1396 41.6376 16.087 45.4558C17.6277 47.3985 19.1834 49.4583 20.7541 51.6354C22.3249 53.8125 23.8171 56.2073 25.2308 58.8198ZM25.2308 69.7722C24.4269 69.7722 23.7235 69.5454 23.1207 69.0919C22.5178 68.6383 22.0824 68.0277 21.8144 67.2602C20.2067 62.3701 18.1965 58.3174 15.7836 55.102C13.3708 51.8866 11.0268 48.8052 8.75189 45.8578C6.47432 42.9103 4.53169 39.8457 2.92399 36.6638C1.3163 33.4819 0.512451 29.5115 0.512451 24.7526C0.512451 17.8557 2.90118 12.0124 7.67865 7.22285C12.4562 2.43326 18.3069 0.0384674 25.2308 0.0384674C32.1546 0.0384674 38.0053 2.4272 42.7829 7.20466C47.5603 11.9822 49.9491 17.8329 49.9491 24.7568C49.9491 29.5129 49.1495 33.4765 47.5503 36.6478C45.951 39.819 44.0041 42.889 41.7096 45.8578C39.4321 48.8052 37.0875 51.8866 34.676 55.102C32.2644 58.3174 30.2598 62.3611 28.662 67.2333C28.3841 67.9881 27.9437 68.5999 27.3409 69.0689C26.738 69.5378 26.0346 69.7722 25.2308 69.7722ZM25.2517 30.7856C26.9124 30.7856 28.3289 30.1925 29.5012 29.0063C30.6735 27.82 31.2596 26.3965 31.2596 24.7359C31.2596 23.0751 30.6665 21.6586 29.4803 20.4863C28.294 19.3141 26.8705 18.7279 25.2099 18.7279C23.5491 18.7279 22.1326 19.321 20.9603 20.5072C19.788 21.6935 19.2019 23.117 19.2019 24.7777C19.2019 26.4384 19.795 27.8549 20.9812 29.0272C22.1675 30.1995 23.591 30.7856 25.2517 30.7856Z" fill="#004357"/>
</svg>
